<?xml version="1.0" encoding="UTF-8" standalone="no"?>
<!DOCTYPE svg PUBLIC "-//W3C//DTD SVG 1.1//EN" "http://www.w3.org/Graphics/SVG/1.1/DTD/svg11.dtd">
<svg width="100%" height="100%" viewBox="0 0 353 353" version="1.1" xmlns="http://www.w3.org/2000/svg" xmlns:xlink="http://www.w3.org/1999/xlink" xml:space="preserve" xmlns:serif="http://www.serif.com/" style="fill-rule:evenodd;clip-rule:evenodd;stroke-linejoin:round;stroke-miterlimit:2;">
    <g id="Artboard1" transform="matrix(1,0,0,1,-284.086,-97.6659)">
        <rect x="284.086" y="97.666" width="352.72" height="352.72" style="fill:none;"/>
        <g transform="matrix(1.29209,0,0,1.29209,233.51,39.3332)">
            <g id="Layers">
                <path d="M223.714,136.154C218.975,123.359 220.659,108.485 229.497,96.808C244.196,77.382 301.853,77.045 311.459,57.002C313.848,72.218 310.122,127.271 295.422,146.696C281.655,164.889 255.708,168.482 237.515,154.715C235.829,153.439 234.268,152.058 232.834,150.587C225.583,154.179 219.202,158.675 214.679,162.228C216.179,173.442 216.344,184.755 216.85,201.172C217.621,226.226 208.317,264.184 194.814,300.719C193.187,305.119 188.294,307.371 183.894,305.745C179.493,304.118 177.241,299.225 178.868,294.825C191.512,260.616 200.58,225.154 199.858,201.695C199.608,193.579 199.459,186.799 199.171,180.663C198.923,180.491 198.683,180.305 198.45,180.103C198.45,180.103 185.837,168.958 178.476,165.938C176.901,165.291 175.402,164.747 173.986,164.29C164.275,181.174 143.376,188.848 124.726,181.482C94.651,169.603 92.201,117.124 39.143,104.753C78.034,98.651 123.984,95.337 154.059,107.216C170.955,113.889 180.763,130.836 179.152,148.061C180.983,148.669 182.909,149.381 184.929,150.21C187.975,151.46 191.778,153.812 195.481,156.38C195.594,156.256 195.712,156.135 195.834,156.016C195.834,156.016 195.979,155.876 196.258,155.615C194.635,147.888 192.129,139.476 188.161,128.693C186.541,124.291 188.799,119.401 193.202,117.781C197.605,116.16 202.494,118.419 204.115,122.822C207.077,130.872 209.292,137.69 210.961,143.886C214.738,141.274 219.056,138.572 223.714,136.154Z" style="fill:rgb(137,203,139);"/>
            </g>
        </g>
    </g>
    <g id="Layers1" serif:id="Layers">
    </g>
</svg>
